<svg width="111" height="117" viewBox="0 0 111 117" fill="none" xmlns="http://www.w3.org/2000/svg">
    <path d="M105 116.5L106 112L111 116.5H105Z" fill="black"/>
    <path d="M45 24.5L39 36.5L46 27L45 24.5Z" fill="black"/>
    <path d="M44 44L39.5 39.5L45.5 42L44 44Z" fill="black"/>
    <path d="M74.7828 107.428L73.2671 100.015L80.3885 101.527L83.0898 104.347L74.7828 107.428Z" fill="black"/>
    <path d="M55.5 76.5L60 72.5L67 78.5L68.5 84L61.5 86.5L55.5 76.5Z" fill="black"/>
    <path d="M55 114.5L52 105.5L58 100L68 108L65.5 114.5H55Z" fill="black" stroke="black" stroke-width="2"/>
    <path d="M7.13889 35.4762C7.37191 35.2043 7.5 34.8581 7.5 34.5V26.1213L10.5607 23.0607C10.9681 22.6532 11.1061 22.0484 10.9158 21.5045L7.41579 11.5045C7.28693 11.1363 7.01971 10.8328 6.67082 10.6584L1.5 8.07295V2.5H44.5V15.1507L37.7283 19.2138C37.2764 19.4848 37 19.9731 37 20.5V26.9793L29.8227 36.0705C29.4141 36.5881 29.3914 37.3117 29.7667 37.8538L34.0995 44.1122L37.0357 57.3254C37.1014 57.6211 37.2551 57.8899 37.4765 58.0966L44.5 64.6518V114.5H1.5V42.0549L7.13889 35.4762Z" stroke="black" stroke-width="3" stroke-miterlimit="3.3292" stroke-linejoin="round"/>
    <path d="M86 116V111.714L94 108.857L102 106L97.7333 116H86Z" fill="black"/>
    <path d="M50 55H46L48.5 59L52 57.5L50 55Z" fill="black"/>
    <path d="M59 28L39 38L58.5 31.5L59 28Z" fill="black"/>
</svg>