<svg width="45" height="44" viewBox="0 0 45 44" fill="none" xmlns="http://www.w3.org/2000/svg">
<path d="M38.9357 0H6.06385C2.71495 0 7.62939e-06 2.6545 7.62939e-06 5.92909V38.0707C7.62939e-06 41.3453 2.71484 43.9998 6.06385 43.9998H22.2761L22.3037 28.2766H18.126C17.5831 28.2766 17.1425 27.8474 17.1404 27.3165L17.1203 22.2483C17.1182 21.7146 17.5602 21.2808 18.1061 21.2808H22.2762V16.3836C22.2762 10.7005 25.826 7.60594 31.011 7.60594H35.2656C35.81 7.60594 36.2514 8.03745 36.2514 8.56981V12.8434C36.2514 13.3755 35.8103 13.8069 35.2662 13.8072L32.6551 13.8084C29.8354 13.8084 29.2894 15.1186 29.2894 17.0412V21.2809H35.4853C36.0757 21.2809 36.5338 21.7849 36.4642 22.3582L35.8498 27.4264C35.791 27.9114 35.3704 28.2769 34.871 28.2769H29.317L29.2894 44H38.936C42.2849 44 44.9997 41.3455 44.9997 38.071V5.92909C44.9996 2.6545 42.2847 0 38.9357 0Z" fill="#203F3D"/>
</svg>
