<svg width="45" height="44" viewBox="0 0 45 44" fill="none" xmlns="http://www.w3.org/2000/svg">
<path d="M31.5943 0H13.4057C6.01379 0 0 5.88015 0 13.1078V30.8922C0 38.1199 6.01379 44 13.4057 44H31.5943C38.9862 44 45 38.1199 45 30.8922V13.1078C44.9999 5.88015 38.9861 0 31.5943 0ZM40.473 30.8922C40.473 35.6867 36.4978 39.5736 31.5943 39.5736H13.4057C8.50219 39.5736 4.527 35.6867 4.527 30.8922V13.1078C4.527 8.31317 8.50219 4.4264 13.4057 4.4264H31.5943C36.4978 4.4264 40.473 8.31317 40.473 13.1078V30.8922Z" fill="#203F3D"/>
<path d="M22.5 10.62C16.0825 10.62 10.8614 15.725 10.8614 21.9999C10.8614 28.2747 16.0825 33.3798 22.5 33.3798C28.9175 33.3798 34.1386 28.2748 34.1386 21.9999C34.1386 15.725 28.9175 10.62 22.5 10.62ZM22.5 28.9535C18.5723 28.9535 15.3884 25.8403 15.3884 22C15.3884 18.1596 18.5724 15.0464 22.5 15.0464C26.4277 15.0464 29.6116 18.1596 29.6116 22C29.6116 25.8403 26.4276 28.9535 22.5 28.9535Z" fill="#203F3D"/>
<path d="M34.1611 13.4323C35.7014 13.4323 36.95 12.2114 36.95 10.7054C36.95 9.19938 35.7014 7.97852 34.1611 7.97852C32.6209 7.97852 31.3723 9.19938 31.3723 10.7054C31.3723 12.2114 32.6209 13.4323 34.1611 13.4323Z" fill="#203F3D"/>
</svg>
