<svg width="45" height="44" viewBox="0 0 45 44" fill="none" xmlns="http://www.w3.org/2000/svg">
<path d="M40.9294 0H4.07062C1.8225 0 0 1.782 0 3.98016V40.0197C0 42.218 1.8225 44 4.07062 44H40.9293C43.1775 44 45 42.218 45 40.0197V3.98016C45 1.782 43.1775 0 40.9294 0ZM13.9249 37.9925C13.9249 38.6322 13.3946 39.1508 12.7403 39.1508H7.69771C7.04344 39.1508 6.5131 38.6322 6.5131 37.9925V17.3239C6.5131 16.6842 7.04344 16.1656 7.69771 16.1656H12.7403C13.3946 16.1656 13.9249 16.6842 13.9249 17.3239V37.9925ZM10.219 14.2173C7.57331 14.2173 5.42851 12.1202 5.42851 9.53326C5.42851 6.94636 7.57331 4.84921 10.219 4.84921C12.8647 4.84921 15.0095 6.94636 15.0095 9.53326C15.0095 12.1202 12.8648 14.2173 10.219 14.2173ZM40.2774 38.0858C40.2774 38.6739 39.7897 39.1508 39.1882 39.1508H33.7771C33.1756 39.1508 32.6879 38.6739 32.6879 38.0858V28.3911C32.6879 26.9448 33.1218 22.0536 28.8225 22.0536C25.4877 22.0536 24.8113 25.4015 24.6754 26.9039V38.0858C24.6754 38.6739 24.1879 39.1508 23.5862 39.1508H18.3528C17.7513 39.1508 17.2636 38.6739 17.2636 38.0858V17.2306C17.2636 16.6425 17.7513 16.1656 18.3528 16.1656H23.5862C24.1877 16.1656 24.6754 16.6425 24.6754 17.2306V19.0338C25.912 17.2193 27.7497 15.8188 31.6624 15.8188C40.327 15.8188 40.2774 23.7337 40.2774 28.0826V38.0858Z" fill="#203F3D"/>
</svg>
