<svg width="45" height="44" viewBox="0 0 45 44" fill="none" xmlns="http://www.w3.org/2000/svg">
<g clip-path="url(#clip0)">
<path d="M21.4089 0.0254457C9.52444 0.57874 0.145935 10.2562 0.181988 21.8897C0.192966 25.433 1.06781 28.7774 2.6111 31.7325L0.24161 42.9786C0.113434 43.5869 0.674568 44.1196 1.29263 43.9765L12.563 41.3657C15.4585 42.7759 18.7108 43.5905 22.1529 43.6419C34.2999 43.8233 44.4284 34.3925 44.807 22.5199C45.2129 9.79313 34.4704 -0.582779 21.4089 0.0254457ZM34.8569 33.9045C31.5562 37.1318 27.1678 38.9091 22.5001 38.9091C19.7669 38.9091 17.1502 38.3095 14.7224 37.127L13.1529 36.3625L6.24297 37.9633L7.69747 31.0595L6.92421 29.5789C5.66387 27.1655 5.02481 24.5557 5.02481 21.8222C5.02481 17.2581 6.84253 12.9673 10.1431 9.73988C13.4143 6.54144 17.8743 4.73519 22.5004 4.73519C27.1681 4.73529 31.5563 6.51261 34.857 9.73978C38.1576 12.967 39.9753 17.2579 39.9754 21.8219C39.9753 26.3452 38.128 30.7062 34.8569 33.9045Z" fill="#203F3D"/>
<path d="M33.3314 26.5546L29.0084 25.3409C28.4401 25.1814 27.828 25.339 27.4139 25.7516L26.3568 26.8048C25.911 27.2488 25.2346 27.3915 24.6446 27.1581C22.5996 26.3489 18.2978 22.6091 17.1992 20.7384C16.8822 20.1988 16.9347 19.5242 17.3238 19.0318L18.2468 17.8643C18.6084 17.4068 18.6847 16.7925 18.4455 16.2637L16.6268 12.2416C16.1911 11.2782 14.932 10.9977 14.1095 11.6779C12.903 12.6757 11.4714 14.192 11.2974 15.8718C10.9905 18.8333 12.2895 22.5667 17.2017 27.0494C22.8765 32.2283 27.4209 32.9125 30.3797 32.2116C32.058 31.8142 33.3991 30.2208 34.2456 28.9162C34.8226 28.0267 34.367 26.8454 33.3314 26.5546Z" fill="#203F3D"/>
</g>
<defs>
<clipPath id="clip0">
<rect width="45" height="44" fill="white"/>
</clipPath>
</defs>
</svg>
